<svg xmlns="http://www.w3.org/2000/svg" viewBox="0 0 479.81388 300.99179"><path d="m241.54 54.18c-1.838.249-4.834.822-7.137 1.322-3.739.74-8.184 2.103-9.697 3.01-2.409 1.449-8.252 5.695-11.916 9.43-3.664 3.734-8.174 11.556-9.963 13.672-1.789 2.116-.669-2.327-.871-2.754-.202-.427-.226-.581-.482-1.268-.256-.687-.795-1.807-1.193-2.711-.398-.904-.859-1.612-1.385-2.127-.526-.515-1.206-.743-1.922-.672-.716.072-1.329.356-2.402 1.398-1.073 1.042-3.194.967-3.922 7.144-.728 6.178 1.449 9.141-6.05 23.412-7.499 14.271-42.06 55.26-52.919 68.49-10.865 13.11-22.41 26.15-34.633 39.14-4.692 5.119-9.753 10.55-15.186 16.293-5.432 5.743-11.05 11.484-16.852 17.227-5.679 5.618-11.422 11.11-17.225 16.48-5.803 5.368-11.481 10.299-17.04 14.793-3.334 2.622-5.989 3.934-7.965 3.934-2.346 0-4.01-2.123-5-6.367-.864-4.245-1.295-9.739-1.295-16.48 0-4.619.184-9.612.555-14.98.494-5.368 1.049-10.861 1.666-16.479.617-5.743 1.296-11.486 2.037-17.229.864-5.743 1.667-11.235 2.408-16.479.741-5.368 1.42-10.363 2.037-14.982.617-4.744.988-8.924 1.111-12.545.247-3.745.063-6.866-.555-9.363-.494-2.622-1.543-4.433-3.148-5.432-3.951 2.372-7.348 6.118-10.188 11.236-2.84 4.994-5.185 10.923-7.04 17.789-1.852 6.742-3.21 14.11-4.074 22.1-.864 7.865-1.295 15.854-1.295 23.969 0 6.742.246 13.483.74 20.225.617 6.617 1.419 12.859 2.406 18.727 1.111 5.868 2.409 11.174 3.891 15.918 1.605 4.619 3.394 8.426 5.369 11.422 3.087 4.619 7.223 6.93 12.408 6.93 4.074 0 8.767-1.498 14.08-4.494 5.309-3.121 10.925-7.178 16.852-12.172 5.926-4.994 11.977-10.674 18.15-17.04 6.297-6.367 12.408-12.921 18.334-19.662 6.05-6.866 11.79-13.608 17.223-20.225 5.432-6.617 10.372-12.61 14.816-17.979 2.469-3.121 4.815-5.992 7.04-8.613 2.222-2.746 4.075-4.994 5.557-6.742.864-.999 2.16-2.434 3.889-4.307 1.729-1.873 3.643-3.995 5.742-6.367 2.222-2.497 4.568-5.119 7.04-7.865 2.469-2.871 4.939-5.679 7.408-8.426 1.975-2.247 4.14-5.251 5.992-7.498 3.774-4.575 7.081-9.838 10.836-15.203 1.682-1.894 3.594-4.372 5.754-7.551.826-1.408 2.691-3.113 4.785-4.922 6.311 9.782 25.522 39.568 26.895 41.916 1.605 2.746 3.085 5.306 4.443 7.678l2.408 4.869v-.188c.494.874 1.235 2.309 2.223 4.307.988 1.873 2.037 3.995 3.148 6.367 1.235 2.372 2.469 4.806 3.703 7.303l3.334 6.742c.247.499.618 1.31 1.111 2.434.494.999.864 1.749 1.111 2.248.741 2.622.37 5.68-1.111 9.176-1.482 3.371-3.643 6.991-6.482 10.861-2.716 3.87-5.927 7.865-9.631 11.984-3.581 4.12-7.098 8.114-10.555 11.984-3.951 4.245-7.594 8.364-10.928 12.359-3.333 3.87-5.987 7.428-7.963 10.674v-.188c-.988 1.498-1.729 3.059-2.223 4.682-.37 1.623-.555 3.121-.555 4.494 0 2.497.617 4.557 1.852 6.18 1.235 1.623 2.901 2.435 5 2.435 1.358 0 2.778-.437 4.26-1.31 1.482-.999 3.086-2.559 4.814-4.682l5.371-6.93c2.716-3.496 5.741-7.302 9.07-11.422 3.333-4.12 6.729-8.302 10.186-12.547 3.581-4.245 7.224-8.364 10.928-12.359 3.704-3.995 7.283-7.615 10.74-10.861.37.499 1.42 2.06 3.148 4.682 1.728 2.622 3.766 5.805 6.111 9.551 2.346 3.745 4.877 7.74 7.594 11.984 2.716 4.245 5.31 8.239 7.779 11.984 2.099 3.246 4.074 6.367 5.926 9.363 1.852 2.871 3.394 5.119 4.629 6.742l.186.186c.37.25.987.937 1.852 2.061h-.184l3.703 3.746c1.358 1.373 2.408 2.184 3.148 2.434.617.25 1.605.312 2.963.188 1.482-.25 2.655-.5 3.519-.75.864-2.247.678-5.243-.557-8.988-1.111-3.745-2.84-7.928-5.186-12.547-2.346-4.619-5.124-9.424-8.334-14.418-3.21-5.118-6.359-10.05-9.445-14.795l-5.185-7.863c-1.605-2.622-3.085-5.058-4.443-7.305-1.358-2.247-2.594-4.307-3.705-6.18-.988-1.873-1.727-3.433-2.221-4.682v.188c-.37-.874-.124-2.184.74-3.932.988-1.748 2.284-3.745 3.889-5.992 1.728-2.372 3.703-4.87 5.926-7.492 2.222-2.746 4.508-5.429 6.853-8.05 3.334-3.87 6.48-7.679 9.443-11.424 2.963-3.745 5.186-7.178 6.668-10.299 1.605-3.121 2.222-5.743 1.852-7.865-.37-2.247-2.221-3.808-5.555-4.682-3.704-.874-7.161-.437-10.371 1.311-3.087 1.623-5.989 3.934-8.705 6.93-2.593 2.871-4.938 6.05-7.04 9.549-1.976 3.496-3.642 6.554-5 9.176-.247.624-.555 1.186-.926 1.686-.247.499-.495.938-.742 1.313-.371.499-.617.936-.74 1.31l-3.703 4.867-1.482 1.873c-.37.624-.803 1.249-1.297 1.873-.494-.499-1.233-1.435-2.221-2.809-.864-1.498-1.854-3.184-2.965-5.057-1.111-1.998-2.283-4.12-3.518-6.367l-3.705-7.115c-2.099-3.87-4.196-7.679-6.295-11.424-1.631-2.911-16.393-29.12-25.488-43.96 9.239-1.7 13.764-4.554 25.2-9.479 20.221-6.689 45.05-51.624 19.441-61.46-3.512-1.273-6.386-1.797-9.48-1.385zm2.137 14.841c22.467 14.276-41.786 52.1-43.19 40.582-.163-9.279 22.984-30.405 26.744-33.522 7.566-6.06 10.257-7.316 16.449-7.06z"/><path d="m125.01 293.48q6.299-20.411 12.04-35.02 5.744-14.609 10.554-23.97 5-9.361 8.703-13.67 3.707-4.492 5.925-4.492 2.779 0 3.333 5.991.555 5.991-2.224 17.04-2.592 10.861-8.703 26.402-6.112 15.352-16.665 34.08-3.146 1.31-7.221.561-3.888-.75-5.557-4.492l-.187-2.432m37.966-103.37q-.187-.561-.368-2.06 0-1.688.187-3.37.187-1.871.368-3.37.368-1.688.741-2.432 2.592-.939 4.261-1.31 1.67-.372 2.965-.372 5.37 0 7.594 2.999 2.224 2.999 2.224 7.119 0 4.309-2.592 8.05-2.405 3.748-6.112 3.748-2.592 0-5-1.871-2.224-1.871-4.261-6.741v-.372"/><path d="m312.58 293.3q-1.67-3.37-1.109-8.05.555-4.681 2.405-9.928 1.85-5.241 4.442-10.672 2.592-5.43 5-10.3l4.816-9.739q1.109-2.432 1.296-3.37.368-1.499.928-3.181.741-1.688 1.67-3.931 1.483-2.81 4.442-8.801 2.965-5.991 6.479-13.481 3.707-7.679 7.594-15.919 4.074-8.24 7.594-15.73 3.707-7.679 6.479-13.67 2.965-5.991 4.261-8.99v-1.121q-4.261.372-8.703 3.181-4.442 2.621-8.336 5.43-1.109.939-2.965 2.249-1.67 1.121-2.965 2.06-4.261-1.121-6.112-3.181-1.67-2.249-1.67-4.87 0-1.871.741-3.931.741-2.06 1.85-3.748 1.109-1.871 2.224-3.37 1.296-1.499 2.224-2.249 18.522-11.61 38.707-17.229 20.19-5.808 41.11-5.808 6.666 0 12.965.561 6.299.561 12.591 1.499 15.743 8.05 22.409 17.04 6.853 8.801 6.853 18.345 0 10.111-7.221 20.222-7.221 10.111-18.89 19.472-11.669 9.178-26.297 17.229-14.447 7.862-29.26 13.859-14.815 5.991-28.334 9.55-13.332 3.559-22.596 3.931-3.888 6.18-6.299 10.3-2.405 4.12-3.888 7.301-1.483 2.999-2.405 5.619-.922 2.621-1.85 6.18-.928 3.37-2.405 8.429-1.483 4.87-4.074 11.61l-4.816 4.87q-.928-.372-2.405-1.31-1.296-1.121-2.779-2.249-1.296-1.31-2.405-2.432-1.109-1.31-1.296-1.871v.189m43.704-65.73q1.109.189 2.224.189 1.296 0 2.224 0 8.149 0 17.22-2.432 9.08-2.621 17.961-6.369 8.89-3.748 17.04-8.05 8.149-4.492 14.628-8.24 19.444-11.238 28.521-22.1 9.08-10.861 9.08-18.912 0-5.059-2.779-9.178-2.779-4.12-7.408-7.119-4.629-2.999-10.741-4.492-6.112-1.688-12.778-1.688-6.299 0-12.965 1.688-6.479 1.499-12.591 4.87-5.925 3.37-11.295 8.801-5.183 5.241-9.08 12.732-2.224 4.309-5.183 10.3-2.965 5.991-6.299 12.549-3.146 6.369-6.479 12.732-3.146 6.369-5.738 11.421-2.405 5.059-4.074 8.24-1.483 3.181-1.483 3.181v1.871"/><path d="m17.517 135.33q-8.812-4.838-12.413-11.969-3.469-7.274-2.995-16.304.363-6.922 2.995-14.484 2.64-7.708 6.781-15.641 4.141-7.932 9.522-15.799 5.388-8.02 11.24-15.408 5.984-7.534 12.04-14.158 6.068-6.775 11.57-12.225 5.497-5.446 10.06-9.433 4.687-4.13 7.771-6.081 6.298-4.047 10.633-3.819 3.096.162 5.231 2.086 2.143 1.772 3.223 4.847 1.213 2.931 1.627 6.876.415 3.945.193 8.159-.331 6.321-1.878 12.13-1.547 5.805-3.748 9.914-2.071 3.966-4.503 5.347-2.308 1.388-4.28-1.281.118-2.258.671-5.699.677-3.436 1.493-7.165.848-4.332 1.836-8.958.988-4.626 1.146-7.637.064-1.204.103-1.957.039-.753-.069-1.06-3.924-.96-9.02 1.489-5.088 2.298-10.931 7.124-5.718 4.831-11.911 11.6-6.068 6.775-11.829 14.773-5.751 7.847-11.04 16.323-5.164 8.482-9.198 16.722-3.91 8.246-6.414 15.66-2.376 7.421-2.683 13.294-.276 5.268 1.672 8.387 1.948 3.12 7.03 3.386 1.363.072 3.863-.25 4.498-.519 8.828-2.555 4.337-2.187 8.467-5.14 4.137-3.103 8.05-6.669 4.044-3.711 7.841-7.436 5.889-5.728 12.01-11.144 6.253-5.556 12.737-8.387 2.029-.799 3.739-.257 1.832.549 2.994 2.119 1.159 1.57 1.421 3.696.385 2.133-.36 4.508-1.025 2.964-5.232 7.422-4.076 4.313-10.173 9.276-6.097 4.963-13.433 9.86-7.339 4.898-14.623 8.896-7.284 3.844-13.987 6.209-6.574 2.216-11.157 1.981-1.61-.085-2.84-.3-1.107-.209-2.067-.863z"/><path d="m69.905 206.73q-1-2.165-.583-5.463.414-3.147 1.857-6.995 1.312-3.704 3.391-7.821 1.947-3.973 3.994-7.487 2.047-3.514 3.931-6.283 1.76-2.774 2.706-4.235.946-1.459 2.961-4.372 1.884-2.769 4.434-6.408 2.543-3.489 5.488-7.56 2.822-4.077 5.652-8.306 4.961-6.984 9.126-12.953 4.163-5.969 5.907-8.444.798-1.014-.978-5.03-1.769-4.168-4.689-10.06-1.909-3.872-3.917-8.203-1.877-4.474-3.506-8.936-1.505-4.453-2.515-8.885-.878-4.573-.665-8.637.134-2.558 1.19-6.124 2.208-1.846 4.127-.538 1.919 1.307 3.611 4.566 1.814 3.264 3.306 8.02 1.621 4.612 3.219 9.676 1.274 4.141 2.546 8.283 1.281 3.99 2.477 7.222 1.205 3.081 2.101 4.939.896 1.857 1.531 1.59 2.731-2.272 5.378-5.453 2.647-3.181 5.201-6.82 2.674-3.633 5.109-7.428 2.558-3.79 4.853-7.292 2.024-3.063 3.784-5.838 1.768-2.926 3.372-5.105 1.736-2.324 3.269-3.148 1.533-.826 4.563.541 1.811 1 .855 5.02-.948 3.873-4.01 10.203-3.056 6.178-7.949 14.222-4.885 7.894-10.823 16.938-5.815 9.05-12.28 18.673-6.465 9.621-12.923 19.09-6.05 8.885-11.706 17.194-5.652 8.306-10.241 15.309-4.589 7-7.846 12.265-3.257 5.262-4.521 8.06-.396.432-.419.884-.845 1.918-1.807 3.678-1.093 1.905-3.294 3.6-.48-.327-1.299-1.275-.82-.948-1.631-2.047-.943-.955-1.639-1.897-.704-.791-.804-1.249l.108.308"/><path d="m263.33 130.74q5.071-16.184 9.525-27.723 4.455-11.538 8.07-18.893 3.738-7.35 6.395-10.681 2.666-3.482 4.153-3.404 1.858.097 1.977 4.933.119 4.836-2.204 13.618-2.192 8.638-6.933 20.915-4.734 12.13-12.582 26.806-2.161.944-4.854.198-2.569-.739-3.526-3.806l-.022-1.963m29.744-81.75q-.1-.457-.161-1.669.071-1.355.266-2.703.202-1.498.39-2.696.318-1.341.598-1.93 1.774-.661 2.904-.904 1.13-.243 1.998-.197 3.591.188 4.952 2.674 1.361 2.486 1.187 5.797-.181 3.461-2.073 6.38-1.768 2.926-4.245 2.795-1.734-.09-3.265-1.68-1.407-1.583-2.565-5.567l.015-.301"/><path d="m310.37 136.22q-3.782-3.67-5.155-8.268-1.365-4.75-1.074-10.319.292-5.567 1.986-11.818 1.823-6.393 4.255-12.454 2.561-6.204 5.345-11.943 2.908-5.733 5.259-10.288 1.109-2.205 2.071-3.966 1.086-1.754 1.792-3.377.295-.89 1.832-4.129 1.544-3.39 3.491-7.362 1.249-2.5 2.374-5.01 1.256-2.65 2.242-4.862 1.109-2.205 1.814-3.828.83-1.616.993-2.362.263-.288.419-.884.288-.74.706-1.623l-.124-.007q.862-2.216 2.02-5.327 1.28-3.102 2.792-5.89 1.512-2.788 3.225-4.661 1.721-2.023 3.578-1.925 1.734.09 3.241 2.132 1.508 2.04 2.625 6.778-.582 1.629-2.692 6.348-2.102 4.568-5.291 10.89-2.932 6.185-6.562 13.842-3.499 7.513-7.153 15.622-3.647 7.958-7.168 15.923-3.398 7.971-6.131 15.07-2.721 6.95-4.509 12.59-1.662 5.647-1.823 8.807l-.094 1.806q1.075.811 3.552.94 1.982.104 4.73-.205 2.756-.46 5.521-1.069 2.633-.465 5.505-.768 2.872-.302 6.077.168.957 3.069-1.414 5.66-2.24 2.448-6.06 4.21-3.818 1.761-8.34 2.732-4.514.82-7.982.638-1.982-.104-3.7-.496-1.594-.386-2.406-1.484l.239.163"/></svg>